<svg width="4019" height="3486" viewBox="0 0 4019 3486" fill="none" xmlns="http://www.w3.org/2000/svg">
    <g filter="url(#filter0_d_402_464)">
        <rect x="1216.28" y="517.603" width="69.514" height="277.018" fill="#DBDCDE"/>
        <g filter="url(#filter1_d_402_464)">
            <rect x="398.086" y="391.359" width="313.452" height="908.179" rx="25" fill="url(#paint0_linear_402_464)"/>
        </g>
        <path d="M515.043 839.449V826.669H517.365V832.087H523.215V826.669H525.519V839.449H523.215V834.085H517.365V839.449H515.043ZM527.464 836.911C527.464 836.263 527.638 835.711 527.986 835.255C528.346 834.799 528.814 834.469 529.39 834.265C529.978 834.049 530.542 833.899 531.082 833.815C531.634 833.731 532.21 833.689 532.81 833.689H533.206V833.563C533.206 832.483 532.63 831.943 531.478 831.943C530.638 831.943 529.786 832.237 528.922 832.825L528.076 831.187C528.472 830.875 529.006 830.611 529.678 830.395C530.35 830.167 531.016 830.053 531.676 830.053C532.876 830.053 533.812 830.377 534.484 831.025C535.156 831.661 535.492 832.555 535.492 833.707V839.449H533.368V838.675L533.422 838.009H533.386C533.098 838.501 532.696 838.903 532.18 839.215C531.664 839.515 531.1 839.665 530.488 839.665C529.636 839.665 528.916 839.413 528.328 838.909C527.752 838.393 527.464 837.727 527.464 836.911ZM529.732 836.713C529.732 837.037 529.852 837.319 530.092 837.559C530.344 837.799 530.686 837.919 531.118 837.919C531.73 837.919 532.234 837.667 532.63 837.163C533.026 836.659 533.224 836.107 533.224 835.507V835.255H532.828C530.764 835.255 529.732 835.741 529.732 836.713ZM536.989 838.315L537.961 836.857C538.681 837.553 539.455 837.901 540.283 837.901C540.775 837.901 541.159 837.793 541.435 837.577C541.723 837.349 541.867 837.043 541.867 836.659C541.867 835.903 541.357 835.525 540.337 835.525H539.221V833.941H540.157C541.105 833.941 541.579 833.587 541.579 832.879C541.579 832.147 541.123 831.781 540.211 831.781C539.491 831.781 538.753 832.033 537.997 832.537L537.259 831.079C538.183 830.395 539.311 830.053 540.643 830.053C541.579 830.053 542.347 830.281 542.947 830.737C543.559 831.181 543.865 831.793 543.865 832.573C543.865 833.557 543.445 834.247 542.605 834.643V834.679C543.637 835.063 544.153 835.765 544.153 836.785C544.153 837.697 543.811 838.405 543.127 838.909C542.443 839.413 541.579 839.665 540.535 839.665C539.131 839.665 537.949 839.215 536.989 838.315ZM546.061 839.449V830.269H550.327C551.275 830.269 552.025 830.479 552.577 830.899C553.141 831.307 553.423 831.889 553.423 832.645C553.423 833.077 553.315 833.479 553.099 833.851C552.895 834.211 552.601 834.481 552.217 834.661V834.679C552.745 834.811 553.147 835.075 553.423 835.471C553.699 835.855 553.837 836.293 553.837 836.785C553.837 837.661 553.519 838.327 552.883 838.783C552.259 839.227 551.437 839.449 550.417 839.449H546.061ZM548.347 834.049H549.841C550.261 834.049 550.579 833.941 550.795 833.725C551.011 833.497 551.119 833.203 551.119 832.843C551.119 832.123 550.681 831.763 549.805 831.763H548.347V834.049ZM548.347 837.937H550.021C550.513 837.937 550.885 837.829 551.137 837.613C551.401 837.385 551.533 837.085 551.533 836.713C551.533 836.329 551.401 836.029 551.137 835.813C550.873 835.585 550.501 835.471 550.021 835.471H548.347V837.937ZM555.044 836.911C555.044 836.263 555.218 835.711 555.566 835.255C555.926 834.799 556.394 834.469 556.97 834.265C557.558 834.049 558.122 833.899 558.662 833.815C559.214 833.731 559.79 833.689 560.39 833.689H560.786V833.563C560.786 832.483 560.21 831.943 559.058 831.943C558.218 831.943 557.366 832.237 556.502 832.825L555.656 831.187C556.052 830.875 556.586 830.611 557.258 830.395C557.93 830.167 558.596 830.053 559.256 830.053C560.456 830.053 561.392 830.377 562.064 831.025C562.736 831.661 563.072 832.555 563.072 833.707V839.449H560.948V838.675L561.002 838.009H560.966C560.678 838.501 560.276 838.903 559.76 839.215C559.244 839.515 558.68 839.665 558.068 839.665C557.216 839.665 556.496 839.413 555.908 838.909C555.332 838.393 555.044 837.727 555.044 836.911ZM557.312 836.713C557.312 837.037 557.432 837.319 557.672 837.559C557.924 837.799 558.266 837.919 558.698 837.919C559.31 837.919 559.814 837.667 560.21 837.163C560.606 836.659 560.804 836.107 560.804 835.507V835.255H560.408C558.344 835.255 557.312 835.741 557.312 836.713ZM565.397 839.449V830.269H567.683V833.815H571.607V830.269H573.893V839.449H571.607V835.741H567.683V839.449H565.397ZM576.348 839.449V830.269H578.526V835.183C578.526 835.627 578.508 835.993 578.472 836.281H578.508C578.556 836.173 578.784 835.807 579.192 835.183L582.594 830.269H584.808V839.449H582.63V834.553C582.63 834.289 582.648 833.923 582.684 833.455H582.648C582.612 833.539 582.384 833.905 581.964 834.553L578.562 839.449H576.348ZM586.706 834.859C586.706 833.443 587.138 832.291 588.002 831.403C588.878 830.503 590.006 830.053 591.386 830.053C592.658 830.053 593.654 830.467 594.374 831.295C595.094 832.111 595.454 833.149 595.454 834.409C595.454 834.613 595.43 834.907 595.382 835.291H589.064C589.136 836.059 589.43 836.659 589.946 837.091C590.462 837.511 591.086 837.721 591.818 837.721C592.73 837.721 593.606 837.385 594.446 836.713L595.346 838.351C594.89 838.759 594.326 839.083 593.654 839.323C592.994 839.551 592.328 839.665 591.656 839.665C590.18 839.665 588.986 839.203 588.074 838.279C587.162 837.343 586.706 836.203 586.706 834.859ZM589.118 833.725H593.168C593.156 833.125 592.976 832.651 592.628 832.303C592.292 831.955 591.86 831.781 591.332 831.781C590.756 831.781 590.27 831.961 589.874 832.321C589.478 832.669 589.226 833.137 589.118 833.725ZM517.453 863.449V854.269H519.739V857.779H520.855L523.087 854.269H525.625L522.709 858.643V858.679L525.985 863.449H523.339L520.927 859.723H519.739V863.449H517.453ZM527.845 862.315C526.873 861.403 526.387 860.251 526.387 858.859C526.387 857.467 526.873 856.321 527.845 855.421C528.817 854.509 530.005 854.053 531.409 854.053C532.825 854.053 534.019 854.509 534.991 855.421C535.975 856.321 536.467 857.467 536.467 858.859C536.467 860.251 535.981 861.403 535.009 862.315C534.037 863.215 532.843 863.665 531.427 863.665C530.011 863.665 528.817 863.215 527.845 862.315ZM528.709 858.859C528.709 859.699 528.967 860.389 529.483 860.929C530.011 861.457 530.659 861.721 531.427 861.721C532.195 861.721 532.843 861.457 533.371 860.929C533.899 860.389 534.163 859.699 534.163 858.859C534.163 858.031 533.893 857.347 533.353 856.807C532.825 856.267 532.183 855.997 531.427 855.997C530.671 855.997 530.029 856.267 529.501 856.807C528.973 857.347 528.709 858.031 528.709 858.859ZM537.975 863.449L538.803 854.269H541.395L543.339 859.003L543.789 860.173H543.825C543.993 859.741 544.143 859.351 544.275 859.003L546.255 854.269H548.811L549.639 863.449H547.443L547.119 858.481L547.137 856.915H547.101C546.933 857.371 546.753 857.815 546.561 858.247L544.761 862.297H542.871L541.071 858.265L540.513 856.915H540.477L540.495 858.481L540.171 863.449H537.975ZM551.73 863.449V854.269H554.016V857.815H557.94V854.269H560.226V863.449H557.94V859.741H554.016V863.449H551.73ZM561.979 860.911C561.979 860.263 562.153 859.711 562.501 859.255C562.861 858.799 563.329 858.469 563.905 858.265C564.493 858.049 565.057 857.899 565.597 857.815C566.149 857.731 566.725 857.689 567.325 857.689H567.721V857.563C567.721 856.483 567.145 855.943 565.993 855.943C565.153 855.943 564.301 856.237 563.437 856.825L562.591 855.187C562.987 854.875 563.521 854.611 564.193 854.395C564.865 854.167 565.531 854.053 566.191 854.053C567.391 854.053 568.327 854.377 568.999 855.025C569.671 855.661 570.007 856.555 570.007 857.707V863.449H567.883V862.675L567.937 862.009H567.901C567.613 862.501 567.211 862.903 566.695 863.215C566.179 863.515 565.615 863.665 565.003 863.665C564.151 863.665 563.431 863.413 562.843 862.909C562.267 862.393 561.979 861.727 561.979 860.911ZM564.247 860.713C564.247 861.037 564.367 861.319 564.607 861.559C564.859 861.799 565.201 861.919 565.633 861.919C566.245 861.919 566.749 861.667 567.145 861.163C567.541 860.659 567.739 860.107 567.739 859.507V859.255H567.343C565.279 859.255 564.247 859.741 564.247 860.713ZM574.386 863.449V856.213H571.362V854.269H579.696V856.213H576.654V863.449H574.386ZM589.884 863.449V854.269H592.17V863.449H589.884ZM581.244 863.449V854.269H583.53V857.419H585.168C586.26 857.419 587.106 857.683 587.706 858.211C588.318 858.727 588.624 859.477 588.624 860.461C588.624 861.385 588.336 862.117 587.76 862.657C587.184 863.185 586.314 863.449 585.15 863.449H581.244ZM583.53 861.883H584.79C585.294 861.883 585.672 861.751 585.924 861.487C586.188 861.223 586.32 860.875 586.32 860.443C586.32 859.999 586.188 859.645 585.924 859.381C585.66 859.105 585.27 858.967 584.754 858.967H583.53V861.883Z"
              fill="white"/>
        <g filter="url(#filter2_d_402_464)">
            <rect x="396.275" y="1897.11" width="248.164" height="893.943" rx="25" fill="url(#paint1_linear_402_464)"/>
        </g>
        <path d="M480.586 2345.2V2332.42H482.908V2337.84H488.758V2332.42H491.062V2345.2H488.758V2339.84H482.908V2345.2H480.586ZM493.007 2342.66C493.007 2342.02 493.181 2341.46 493.529 2341.01C493.889 2340.55 494.357 2340.22 494.933 2340.02C495.521 2339.8 496.085 2339.65 496.625 2339.57C497.177 2339.48 497.753 2339.44 498.353 2339.44H498.749V2339.32C498.749 2338.24 498.173 2337.7 497.021 2337.7C496.181 2337.7 495.329 2337.99 494.465 2338.58L493.619 2336.94C494.015 2336.63 494.549 2336.36 495.221 2336.15C495.893 2335.92 496.559 2335.81 497.219 2335.81C498.419 2335.81 499.355 2336.13 500.027 2336.78C500.699 2337.41 501.035 2338.31 501.035 2339.46V2345.2H498.911V2344.43L498.965 2343.76H498.929C498.641 2344.25 498.239 2344.66 497.723 2344.97C497.207 2345.27 496.643 2345.42 496.031 2345.42C495.179 2345.42 494.459 2345.17 493.871 2344.66C493.295 2344.15 493.007 2343.48 493.007 2342.66ZM495.275 2342.47C495.275 2342.79 495.395 2343.07 495.635 2343.31C495.887 2343.55 496.229 2343.67 496.661 2343.67C497.273 2343.67 497.777 2343.42 498.173 2342.92C498.569 2342.41 498.767 2341.86 498.767 2341.26V2341.01H498.371C496.307 2341.01 495.275 2341.49 495.275 2342.47ZM502.532 2344.07L503.504 2342.61C504.224 2343.31 504.998 2343.65 505.826 2343.65C506.318 2343.65 506.702 2343.55 506.978 2343.33C507.266 2343.1 507.41 2342.8 507.41 2342.41C507.41 2341.66 506.9 2341.28 505.88 2341.28H504.764V2339.69H505.7C506.648 2339.69 507.122 2339.34 507.122 2338.63C507.122 2337.9 506.666 2337.53 505.754 2337.53C505.034 2337.53 504.296 2337.79 503.54 2338.29L502.802 2336.83C503.726 2336.15 504.854 2335.81 506.186 2335.81C507.122 2335.81 507.89 2336.03 508.49 2336.49C509.102 2336.93 509.408 2337.55 509.408 2338.33C509.408 2339.31 508.988 2340 508.148 2340.4V2340.43C509.18 2340.82 509.696 2341.52 509.696 2342.54C509.696 2343.45 509.354 2344.16 508.67 2344.66C507.986 2345.17 507.122 2345.42 506.078 2345.42C504.674 2345.42 503.492 2344.97 502.532 2344.07ZM511.604 2345.2V2336.02H515.87C516.818 2336.02 517.568 2336.23 518.12 2336.65C518.684 2337.06 518.966 2337.64 518.966 2338.4C518.966 2338.83 518.858 2339.23 518.642 2339.6C518.438 2339.96 518.144 2340.23 517.76 2340.41V2340.43C518.288 2340.56 518.69 2340.83 518.966 2341.22C519.242 2341.61 519.38 2342.05 519.38 2342.54C519.38 2343.41 519.062 2344.08 518.426 2344.54C517.802 2344.98 516.98 2345.2 515.96 2345.2H511.604ZM513.89 2339.8H515.384C515.804 2339.8 516.122 2339.69 516.338 2339.48C516.554 2339.25 516.662 2338.96 516.662 2338.6C516.662 2337.88 516.224 2337.52 515.348 2337.52H513.89V2339.8ZM513.89 2343.69H515.564C516.056 2343.69 516.428 2343.58 516.68 2343.37C516.944 2343.14 517.076 2342.84 517.076 2342.47C517.076 2342.08 516.944 2341.78 516.68 2341.57C516.416 2341.34 516.044 2341.22 515.564 2341.22H513.89V2343.69ZM520.587 2342.66C520.587 2342.02 520.761 2341.46 521.109 2341.01C521.469 2340.55 521.937 2340.22 522.513 2340.02C523.101 2339.8 523.665 2339.65 524.205 2339.57C524.757 2339.48 525.333 2339.44 525.933 2339.44H526.329V2339.32C526.329 2338.24 525.753 2337.7 524.601 2337.7C523.761 2337.7 522.909 2337.99 522.045 2338.58L521.199 2336.94C521.595 2336.63 522.129 2336.36 522.801 2336.15C523.473 2335.92 524.139 2335.81 524.799 2335.81C525.999 2335.81 526.935 2336.13 527.607 2336.78C528.279 2337.41 528.615 2338.31 528.615 2339.46V2345.2H526.491V2344.43L526.545 2343.76H526.509C526.221 2344.25 525.819 2344.66 525.303 2344.97C524.787 2345.27 524.223 2345.42 523.611 2345.42C522.759 2345.42 522.039 2345.17 521.451 2344.66C520.875 2344.15 520.587 2343.48 520.587 2342.66ZM522.855 2342.47C522.855 2342.79 522.975 2343.07 523.215 2343.31C523.467 2343.55 523.809 2343.67 524.241 2343.67C524.853 2343.67 525.357 2343.42 525.753 2342.92C526.149 2342.41 526.347 2341.86 526.347 2341.26V2341.01H525.951C523.887 2341.01 522.855 2341.49 522.855 2342.47ZM530.94 2345.2V2336.02H533.226V2339.57H537.15V2336.02H539.436V2345.2H537.15V2341.49H533.226V2345.2H530.94ZM541.891 2345.2V2336.02H544.069V2340.94C544.069 2341.38 544.051 2341.75 544.015 2342.03H544.051C544.099 2341.93 544.327 2341.56 544.735 2340.94L548.137 2336.02H550.351V2345.2H548.173V2340.31C548.173 2340.04 548.191 2339.68 548.227 2339.21H548.191C548.155 2339.29 547.927 2339.66 547.507 2340.31L544.105 2345.2H541.891ZM552.249 2340.61C552.249 2339.2 552.681 2338.04 553.545 2337.16C554.421 2336.26 555.549 2335.81 556.929 2335.81C558.201 2335.81 559.197 2336.22 559.917 2337.05C560.637 2337.86 560.997 2338.9 560.997 2340.16C560.997 2340.37 560.973 2340.66 560.925 2341.04H554.607C554.679 2341.81 554.973 2342.41 555.489 2342.84C556.005 2343.26 556.629 2343.47 557.361 2343.47C558.273 2343.47 559.149 2343.14 559.989 2342.47L560.889 2344.1C560.433 2344.51 559.869 2344.84 559.197 2345.08C558.537 2345.3 557.871 2345.42 557.199 2345.42C555.723 2345.42 554.529 2344.96 553.617 2344.03C552.705 2343.1 552.249 2341.96 552.249 2340.61ZM554.661 2339.48H558.711C558.699 2338.88 558.519 2338.4 558.171 2338.06C557.835 2337.71 557.403 2337.53 556.875 2337.53C556.299 2337.53 555.813 2337.71 555.417 2338.07C555.021 2338.42 554.769 2338.89 554.661 2339.48ZM482.995 2369.2V2360.02H485.281V2363.53H486.397L488.629 2360.02H491.167L488.251 2364.4V2364.43L491.527 2369.2H488.881L486.469 2365.48H485.281V2369.2H482.995ZM493.388 2368.07C492.416 2367.16 491.93 2366 491.93 2364.61C491.93 2363.22 492.416 2362.07 493.388 2361.17C494.36 2360.26 495.548 2359.81 496.952 2359.81C498.368 2359.81 499.562 2360.26 500.534 2361.17C501.518 2362.07 502.01 2363.22 502.01 2364.61C502.01 2366 501.524 2367.16 500.552 2368.07C499.58 2368.97 498.386 2369.42 496.97 2369.42C495.554 2369.42 494.36 2368.97 493.388 2368.07ZM494.252 2364.61C494.252 2365.45 494.51 2366.14 495.026 2366.68C495.554 2367.21 496.202 2367.47 496.97 2367.47C497.738 2367.47 498.386 2367.21 498.914 2366.68C499.442 2366.14 499.706 2365.45 499.706 2364.61C499.706 2363.78 499.436 2363.1 498.896 2362.56C498.368 2362.02 497.726 2361.75 496.97 2361.75C496.214 2361.75 495.572 2362.02 495.044 2362.56C494.516 2363.1 494.252 2363.78 494.252 2364.61ZM503.518 2369.2L504.346 2360.02H506.938L508.882 2364.76L509.332 2365.93H509.368C509.536 2365.49 509.686 2365.1 509.818 2364.76L511.798 2360.02H514.354L515.182 2369.2H512.986L512.662 2364.23L512.68 2362.67H512.644C512.476 2363.12 512.296 2363.57 512.104 2364L510.304 2368.05H508.414L506.614 2364.02L506.056 2362.67H506.02L506.038 2364.23L505.714 2369.2H503.518ZM517.273 2369.2V2360.02H519.559V2363.57H523.483V2360.02H525.769V2369.2H523.483V2365.49H519.559V2369.2H517.273ZM527.522 2366.66C527.522 2366.02 527.696 2365.46 528.044 2365.01C528.404 2364.55 528.872 2364.22 529.448 2364.02C530.036 2363.8 530.6 2363.65 531.14 2363.57C531.692 2363.48 532.268 2363.44 532.868 2363.44H533.264V2363.32C533.264 2362.24 532.688 2361.7 531.536 2361.7C530.696 2361.7 529.844 2361.99 528.98 2362.58L528.134 2360.94C528.53 2360.63 529.064 2360.36 529.736 2360.15C530.408 2359.92 531.074 2359.81 531.734 2359.81C532.934 2359.81 533.87 2360.13 534.542 2360.78C535.214 2361.41 535.55 2362.31 535.55 2363.46V2369.2H533.426V2368.43L533.48 2367.76H533.444C533.156 2368.25 532.754 2368.66 532.238 2368.97C531.722 2369.27 531.158 2369.42 530.546 2369.42C529.694 2369.42 528.974 2369.17 528.386 2368.66C527.81 2368.15 527.522 2367.48 527.522 2366.66ZM529.79 2366.47C529.79 2366.79 529.91 2367.07 530.15 2367.31C530.402 2367.55 530.744 2367.67 531.176 2367.67C531.788 2367.67 532.292 2367.42 532.688 2366.92C533.084 2366.41 533.282 2365.86 533.282 2365.26V2365.01H532.886C530.822 2365.01 529.79 2365.49 529.79 2366.47ZM539.929 2369.2V2361.97H536.905V2360.02H545.239V2361.97H542.197V2369.2H539.929ZM555.427 2369.2V2360.02H557.713V2369.2H555.427ZM546.787 2369.2V2360.02H549.073V2363.17H550.711C551.803 2363.17 552.649 2363.44 553.249 2363.96C553.861 2364.48 554.167 2365.23 554.167 2366.21C554.167 2367.14 553.879 2367.87 553.303 2368.41C552.727 2368.94 551.857 2369.2 550.693 2369.2H546.787ZM549.073 2367.64H550.333C550.837 2367.64 551.215 2367.5 551.467 2367.24C551.731 2366.98 551.863 2366.63 551.863 2366.2C551.863 2365.75 551.731 2365.4 551.467 2365.13C551.203 2364.86 550.813 2364.72 550.297 2364.72H549.073V2367.64Z"
              fill="white"/>
        <g filter="url(#filter3_d_402_464)">
            <rect x="770.275" y="285.112" width="412.844" height="206.093" rx="25" fill="url(#paint2_linear_402_464)"/>
        </g>
        <path d="M936.928 382.158V369.378H939.25V374.796H945.1V369.378H947.404V382.158H945.1V376.794H939.25V382.158H936.928ZM949.349 379.62C949.349 378.972 949.523 378.42 949.871 377.964C950.231 377.508 950.699 377.178 951.275 376.974C951.863 376.758 952.427 376.608 952.967 376.524C953.519 376.44 954.095 376.398 954.695 376.398H955.091V376.272C955.091 375.192 954.515 374.652 953.363 374.652C952.523 374.652 951.671 374.946 950.807 375.534L949.961 373.896C950.357 373.584 950.891 373.32 951.563 373.104C952.235 372.876 952.901 372.762 953.561 372.762C954.761 372.762 955.697 373.086 956.369 373.734C957.041 374.37 957.377 375.264 957.377 376.416V382.158H955.253V381.384L955.307 380.718H955.271C954.983 381.21 954.581 381.612 954.065 381.924C953.549 382.224 952.985 382.374 952.373 382.374C951.521 382.374 950.801 382.122 950.213 381.618C949.637 381.102 949.349 380.436 949.349 379.62ZM951.617 379.422C951.617 379.746 951.737 380.028 951.977 380.268C952.229 380.508 952.571 380.628 953.003 380.628C953.615 380.628 954.119 380.376 954.515 379.872C954.911 379.368 955.109 378.816 955.109 378.216V377.964H954.713C952.649 377.964 951.617 378.45 951.617 379.422ZM958.874 381.024L959.846 379.566C960.566 380.262 961.34 380.61 962.168 380.61C962.66 380.61 963.044 380.502 963.32 380.286C963.608 380.058 963.752 379.752 963.752 379.368C963.752 378.612 963.242 378.234 962.222 378.234H961.106V376.65H962.042C962.99 376.65 963.464 376.296 963.464 375.588C963.464 374.856 963.008 374.49 962.096 374.49C961.376 374.49 960.638 374.742 959.882 375.246L959.144 373.788C960.068 373.104 961.196 372.762 962.528 372.762C963.464 372.762 964.232 372.99 964.832 373.446C965.444 373.89 965.75 374.502 965.75 375.282C965.75 376.266 965.33 376.956 964.49 377.352V377.388C965.522 377.772 966.038 378.474 966.038 379.494C966.038 380.406 965.696 381.114 965.012 381.618C964.328 382.122 963.464 382.374 962.42 382.374C961.016 382.374 959.834 381.924 958.874 381.024ZM967.946 382.158V372.978H972.212C973.16 372.978 973.91 373.188 974.462 373.608C975.026 374.016 975.308 374.598 975.308 375.354C975.308 375.786 975.2 376.188 974.984 376.56C974.78 376.92 974.486 377.19 974.102 377.37V377.388C974.63 377.52 975.032 377.784 975.308 378.18C975.584 378.564 975.722 379.002 975.722 379.494C975.722 380.37 975.404 381.036 974.768 381.492C974.144 381.936 973.322 382.158 972.302 382.158H967.946ZM970.232 376.758H971.726C972.146 376.758 972.464 376.65 972.68 376.434C972.896 376.206 973.004 375.912 973.004 375.552C973.004 374.832 972.566 374.472 971.69 374.472H970.232V376.758ZM970.232 380.646H971.906C972.398 380.646 972.77 380.538 973.022 380.322C973.286 380.094 973.418 379.794 973.418 379.422C973.418 379.038 973.286 378.738 973.022 378.522C972.758 378.294 972.386 378.18 971.906 378.18H970.232V380.646ZM976.929 379.62C976.929 378.972 977.103 378.42 977.451 377.964C977.811 377.508 978.279 377.178 978.855 376.974C979.443 376.758 980.007 376.608 980.547 376.524C981.099 376.44 981.675 376.398 982.275 376.398H982.671V376.272C982.671 375.192 982.095 374.652 980.943 374.652C980.103 374.652 979.251 374.946 978.387 375.534L977.541 373.896C977.937 373.584 978.471 373.32 979.143 373.104C979.815 372.876 980.481 372.762 981.141 372.762C982.341 372.762 983.277 373.086 983.949 373.734C984.621 374.37 984.957 375.264 984.957 376.416V382.158H982.833V381.384L982.887 380.718H982.851C982.563 381.21 982.161 381.612 981.645 381.924C981.129 382.224 980.565 382.374 979.953 382.374C979.101 382.374 978.381 382.122 977.793 381.618C977.217 381.102 976.929 380.436 976.929 379.62ZM979.197 379.422C979.197 379.746 979.317 380.028 979.557 380.268C979.809 380.508 980.151 380.628 980.583 380.628C981.195 380.628 981.699 380.376 982.095 379.872C982.491 379.368 982.689 378.816 982.689 378.216V377.964H982.293C980.229 377.964 979.197 378.45 979.197 379.422ZM987.282 382.158V372.978H989.568V376.524H993.492V372.978H995.778V382.158H993.492V378.45H989.568V382.158H987.282ZM998.233 382.158V372.978H1000.41V377.892C1000.41 378.336 1000.39 378.702 1000.36 378.99H1000.39C1000.44 378.882 1000.67 378.516 1001.08 377.892L1004.48 372.978H1006.69V382.158H1004.51V377.262C1004.51 376.998 1004.53 376.632 1004.57 376.164H1004.53C1004.5 376.248 1004.27 376.614 1003.85 377.262L1000.45 382.158H998.233ZM1008.59 377.568C1008.59 376.152 1009.02 375 1009.89 374.112C1010.76 373.212 1011.89 372.762 1013.27 372.762C1014.54 372.762 1015.54 373.176 1016.26 374.004C1016.98 374.82 1017.34 375.858 1017.34 377.118C1017.34 377.322 1017.31 377.616 1017.27 378H1010.95C1011.02 378.768 1011.31 379.368 1011.83 379.8C1012.35 380.22 1012.97 380.43 1013.7 380.43C1014.61 380.43 1015.49 380.094 1016.33 379.422L1017.23 381.06C1016.77 381.468 1016.21 381.792 1015.54 382.032C1014.88 382.26 1014.21 382.374 1013.54 382.374C1012.06 382.374 1010.87 381.912 1009.96 380.988C1009.05 380.052 1008.59 378.912 1008.59 377.568ZM1011 376.434H1015.05C1015.04 375.834 1014.86 375.36 1014.51 375.012C1014.18 374.664 1013.74 374.49 1013.22 374.49C1012.64 374.49 1012.15 374.67 1011.76 375.03C1011.36 375.378 1011.11 375.846 1011 376.434ZM939.337 406.158V396.978H941.623V400.488H942.739L944.971 396.978H947.509L944.593 401.352V401.388L947.869 406.158H945.223L942.811 402.432H941.623V406.158H939.337ZM949.729 405.024C948.757 404.112 948.271 402.96 948.271 401.568C948.271 400.176 948.757 399.03 949.729 398.13C950.701 397.218 951.889 396.762 953.293 396.762C954.709 396.762 955.903 397.218 956.875 398.13C957.859 399.03 958.351 400.176 958.351 401.568C958.351 402.96 957.865 404.112 956.893 405.024C955.921 405.924 954.727 406.374 953.311 406.374C951.895 406.374 950.701 405.924 949.729 405.024ZM950.593 401.568C950.593 402.408 950.851 403.098 951.367 403.638C951.895 404.166 952.543 404.43 953.311 404.43C954.079 404.43 954.727 404.166 955.255 403.638C955.783 403.098 956.047 402.408 956.047 401.568C956.047 400.74 955.777 400.056 955.237 399.516C954.709 398.976 954.067 398.706 953.311 398.706C952.555 398.706 951.913 398.976 951.385 399.516C950.857 400.056 950.593 400.74 950.593 401.568ZM959.86 406.158L960.688 396.978H963.28L965.224 401.712L965.674 402.882H965.71C965.878 402.45 966.028 402.06 966.16 401.712L968.14 396.978H970.696L971.524 406.158H969.328L969.004 401.19L969.022 399.624H968.986C968.818 400.08 968.638 400.524 968.446 400.956L966.646 405.006H964.756L962.956 400.974L962.398 399.624H962.362L962.38 401.19L962.056 406.158H959.86ZM973.615 406.158V396.978H975.901V400.524H979.825V396.978H982.111V406.158H979.825V402.45H975.901V406.158H973.615ZM983.864 403.62C983.864 402.972 984.038 402.42 984.386 401.964C984.746 401.508 985.214 401.178 985.79 400.974C986.378 400.758 986.942 400.608 987.482 400.524C988.034 400.44 988.61 400.398 989.21 400.398H989.606V400.272C989.606 399.192 989.03 398.652 987.878 398.652C987.038 398.652 986.186 398.946 985.322 399.534L984.476 397.896C984.872 397.584 985.406 397.32 986.078 397.104C986.75 396.876 987.416 396.762 988.076 396.762C989.276 396.762 990.212 397.086 990.884 397.734C991.556 398.37 991.892 399.264 991.892 400.416V406.158H989.768V405.384L989.822 404.718H989.786C989.498 405.21 989.096 405.612 988.58 405.924C988.064 406.224 987.5 406.374 986.888 406.374C986.036 406.374 985.316 406.122 984.728 405.618C984.152 405.102 983.864 404.436 983.864 403.62ZM986.132 403.422C986.132 403.746 986.252 404.028 986.492 404.268C986.744 404.508 987.086 404.628 987.518 404.628C988.13 404.628 988.634 404.376 989.03 403.872C989.426 403.368 989.624 402.816 989.624 402.216V401.964H989.228C987.164 401.964 986.132 402.45 986.132 403.422ZM996.27 406.158V398.922H993.246V396.978H1001.58V398.922H998.538V406.158H996.27ZM1011.77 406.158V396.978H1014.05V406.158H1011.77ZM1003.13 406.158V396.978H1005.41V400.128H1007.05C1008.14 400.128 1008.99 400.392 1009.59 400.92C1010.2 401.436 1010.51 402.186 1010.51 403.17C1010.51 404.094 1010.22 404.826 1009.64 405.366C1009.07 405.894 1008.2 406.158 1007.03 406.158H1003.13ZM1005.41 404.592H1006.67C1007.18 404.592 1007.56 404.46 1007.81 404.196C1008.07 403.932 1008.2 403.584 1008.2 403.152C1008.2 402.708 1008.07 402.354 1007.81 402.09C1007.54 401.814 1007.15 401.676 1006.64 401.676H1005.41V404.592Z"
              fill="white"/>
        <g filter="url(#filter4_d_402_464)">
            <rect x="2116.27" y="1125.11" width="877" height="275.124" rx="25" fill="url(#paint3_linear_402_464)"/>
        </g>
        <path d="M2514 1256.67V1243.89H2516.33V1249.31H2522.18V1243.89H2524.48V1256.67H2522.18V1251.31H2516.33V1256.67H2514ZM2526.43 1254.14C2526.43 1253.49 2526.6 1252.94 2526.95 1252.48C2527.31 1252.02 2527.78 1251.69 2528.35 1251.49C2528.94 1251.27 2529.5 1251.12 2530.04 1251.04C2530.6 1250.96 2531.17 1250.91 2531.77 1250.91H2532.17V1250.79C2532.17 1249.71 2531.59 1249.17 2530.44 1249.17C2529.6 1249.17 2528.75 1249.46 2527.88 1250.05L2527.04 1248.41C2527.43 1248.1 2527.97 1247.84 2528.64 1247.62C2529.31 1247.39 2529.98 1247.28 2530.64 1247.28C2531.84 1247.28 2532.77 1247.6 2533.45 1248.25C2534.12 1248.89 2534.45 1249.78 2534.45 1250.93V1256.67H2532.33V1255.9L2532.38 1255.23H2532.35C2532.06 1255.73 2531.66 1256.13 2531.14 1256.44C2530.63 1256.74 2530.06 1256.89 2529.45 1256.89C2528.6 1256.89 2527.88 1256.64 2527.29 1256.13C2526.71 1255.62 2526.43 1254.95 2526.43 1254.14ZM2528.69 1253.94C2528.69 1254.26 2528.81 1254.54 2529.05 1254.78C2529.31 1255.02 2529.65 1255.14 2530.08 1255.14C2530.69 1255.14 2531.2 1254.89 2531.59 1254.39C2531.99 1253.88 2532.19 1253.33 2532.19 1252.73V1252.48H2531.79C2529.73 1252.48 2528.69 1252.97 2528.69 1253.94ZM2535.95 1255.54L2536.92 1254.08C2537.64 1254.78 2538.42 1255.13 2539.24 1255.13C2539.74 1255.13 2540.12 1255.02 2540.4 1254.8C2540.68 1254.57 2540.83 1254.27 2540.83 1253.88C2540.83 1253.13 2540.32 1252.75 2539.3 1252.75H2538.18V1251.17H2539.12C2540.07 1251.17 2540.54 1250.81 2540.54 1250.1C2540.54 1249.37 2540.08 1249.01 2539.17 1249.01C2538.45 1249.01 2537.71 1249.26 2536.96 1249.76L2536.22 1248.3C2537.14 1247.62 2538.27 1247.28 2539.6 1247.28C2540.54 1247.28 2541.31 1247.51 2541.91 1247.96C2542.52 1248.41 2542.83 1249.02 2542.83 1249.8C2542.83 1250.78 2542.41 1251.47 2541.57 1251.87V1251.9C2542.6 1252.29 2543.11 1252.99 2543.11 1254.01C2543.11 1254.92 2542.77 1255.63 2542.09 1256.13C2541.4 1256.64 2540.54 1256.89 2539.5 1256.89C2538.09 1256.89 2536.91 1256.44 2535.95 1255.54ZM2545.02 1256.67V1247.49H2549.29C2550.24 1247.49 2550.99 1247.7 2551.54 1248.12C2552.1 1248.53 2552.38 1249.11 2552.38 1249.87C2552.38 1250.3 2552.28 1250.7 2552.06 1251.08C2551.86 1251.44 2551.56 1251.71 2551.18 1251.89V1251.9C2551.71 1252.04 2552.11 1252.3 2552.38 1252.7C2552.66 1253.08 2552.8 1253.52 2552.8 1254.01C2552.8 1254.89 2552.48 1255.55 2551.84 1256.01C2551.22 1256.45 2550.4 1256.67 2549.38 1256.67H2545.02ZM2547.31 1251.27H2548.8C2549.22 1251.27 2549.54 1251.17 2549.76 1250.95C2549.97 1250.72 2550.08 1250.43 2550.08 1250.07C2550.08 1249.35 2549.64 1248.99 2548.77 1248.99H2547.31V1251.27ZM2547.31 1255.16H2548.98C2549.47 1255.16 2549.85 1255.05 2550.1 1254.84C2550.36 1254.61 2550.49 1254.31 2550.49 1253.94C2550.49 1253.55 2550.36 1253.25 2550.1 1253.04C2549.83 1252.81 2549.46 1252.7 2548.98 1252.7H2547.31V1255.16ZM2554.01 1254.14C2554.01 1253.49 2554.18 1252.94 2554.53 1252.48C2554.89 1252.02 2555.36 1251.69 2555.93 1251.49C2556.52 1251.27 2557.08 1251.12 2557.62 1251.04C2558.18 1250.96 2558.75 1250.91 2559.35 1250.91H2559.75V1250.79C2559.75 1249.71 2559.17 1249.17 2558.02 1249.17C2557.18 1249.17 2556.33 1249.46 2555.46 1250.05L2554.62 1248.41C2555.01 1248.1 2555.55 1247.84 2556.22 1247.62C2556.89 1247.39 2557.56 1247.28 2558.22 1247.28C2559.42 1247.28 2560.35 1247.6 2561.03 1248.25C2561.7 1248.89 2562.03 1249.78 2562.03 1250.93V1256.67H2559.91V1255.9L2559.96 1255.23H2559.93C2559.64 1255.73 2559.24 1256.13 2558.72 1256.44C2558.21 1256.74 2557.64 1256.89 2557.03 1256.89C2556.18 1256.89 2555.46 1256.64 2554.87 1256.13C2554.29 1255.62 2554.01 1254.95 2554.01 1254.14ZM2556.27 1253.94C2556.27 1254.26 2556.39 1254.54 2556.63 1254.78C2556.89 1255.02 2557.23 1255.14 2557.66 1255.14C2558.27 1255.14 2558.78 1254.89 2559.17 1254.39C2559.57 1253.88 2559.77 1253.33 2559.77 1252.73V1252.48H2559.37C2557.31 1252.48 2556.27 1252.97 2556.27 1253.94ZM2564.36 1256.67V1247.49H2566.64V1251.04H2570.57V1247.49H2572.85V1256.67H2570.57V1252.97H2566.64V1256.67H2564.36ZM2575.31 1256.67V1247.49H2577.49V1252.41C2577.49 1252.85 2577.47 1253.22 2577.43 1253.51H2577.47C2577.52 1253.4 2577.74 1253.03 2578.15 1252.41L2581.55 1247.49H2583.77V1256.67H2581.59V1251.78C2581.59 1251.51 2581.61 1251.15 2581.64 1250.68H2581.61C2581.57 1250.76 2581.34 1251.13 2580.92 1251.78L2577.52 1256.67H2575.31ZM2585.67 1252.08C2585.67 1250.67 2586.1 1249.52 2586.96 1248.63C2587.84 1247.73 2588.97 1247.28 2590.35 1247.28C2591.62 1247.28 2592.61 1247.69 2593.33 1248.52C2594.05 1249.34 2594.41 1250.37 2594.41 1251.63C2594.41 1251.84 2594.39 1252.13 2594.34 1252.52H2588.02C2588.1 1253.28 2588.39 1253.88 2588.91 1254.32C2589.42 1254.74 2590.05 1254.95 2590.78 1254.95C2591.69 1254.95 2592.57 1254.61 2593.41 1253.94L2594.31 1255.58C2593.85 1255.98 2593.29 1256.31 2592.61 1256.55C2591.95 1256.78 2591.29 1256.89 2590.62 1256.89C2589.14 1256.89 2587.95 1256.43 2587.03 1255.5C2586.12 1254.57 2585.67 1253.43 2585.67 1252.08ZM2588.08 1250.95H2592.13C2592.12 1250.35 2591.94 1249.88 2591.59 1249.53C2591.25 1249.18 2590.82 1249.01 2590.29 1249.01C2589.72 1249.01 2589.23 1249.19 2588.83 1249.55C2588.44 1249.89 2588.19 1250.36 2588.08 1250.95ZM2516.41 1280.67V1271.49H2518.7V1275H2519.82L2522.05 1271.49H2524.59L2521.67 1275.87V1275.9L2524.95 1280.67H2522.3L2519.89 1276.95H2518.7V1280.67H2516.41ZM2526.81 1279.54C2525.83 1278.63 2525.35 1277.48 2525.35 1276.08C2525.35 1274.69 2525.83 1273.55 2526.81 1272.65C2527.78 1271.73 2528.97 1271.28 2530.37 1271.28C2531.79 1271.28 2532.98 1271.73 2533.95 1272.65C2534.94 1273.55 2535.43 1274.69 2535.43 1276.08C2535.43 1277.48 2534.94 1278.63 2533.97 1279.54C2533 1280.44 2531.8 1280.89 2530.39 1280.89C2528.97 1280.89 2527.78 1280.44 2526.81 1279.54ZM2527.67 1276.08C2527.67 1276.92 2527.93 1277.61 2528.44 1278.15C2528.97 1278.68 2529.62 1278.95 2530.39 1278.95C2531.16 1278.95 2531.8 1278.68 2532.33 1278.15C2532.86 1277.61 2533.12 1276.92 2533.12 1276.08C2533.12 1275.26 2532.85 1274.57 2532.31 1274.03C2531.79 1273.49 2531.14 1273.22 2530.39 1273.22C2529.63 1273.22 2528.99 1273.49 2528.46 1274.03C2527.93 1274.57 2527.67 1275.26 2527.67 1276.08ZM2536.94 1280.67L2537.76 1271.49H2540.36L2542.3 1276.23L2542.75 1277.4H2542.79C2542.95 1276.97 2543.1 1276.58 2543.24 1276.23L2545.22 1271.49H2547.77L2548.6 1280.67H2546.4L2546.08 1275.71L2546.1 1274.14H2546.06C2545.89 1274.6 2545.71 1275.04 2545.52 1275.47L2543.72 1279.52H2541.83L2540.03 1275.49L2539.47 1274.14H2539.44L2539.46 1275.71L2539.13 1280.67H2536.94ZM2550.69 1280.67V1271.49H2552.98V1275.04H2556.9V1271.49H2559.19V1280.67H2556.9V1276.97H2552.98V1280.67H2550.69ZM2560.94 1278.14C2560.94 1277.49 2561.11 1276.94 2561.46 1276.48C2561.82 1276.02 2562.29 1275.69 2562.87 1275.49C2563.45 1275.27 2564.02 1275.12 2564.56 1275.04C2565.11 1274.96 2565.69 1274.91 2566.29 1274.91H2566.68V1274.79C2566.68 1273.71 2566.11 1273.17 2564.95 1273.17C2564.11 1273.17 2563.26 1273.46 2562.4 1274.05L2561.55 1272.41C2561.95 1272.1 2562.48 1271.84 2563.15 1271.62C2563.83 1271.39 2564.49 1271.28 2565.15 1271.28C2566.35 1271.28 2567.29 1271.6 2567.96 1272.25C2568.63 1272.89 2568.97 1273.78 2568.97 1274.93V1280.67H2566.84V1279.9L2566.9 1279.23H2566.86C2566.57 1279.73 2566.17 1280.13 2565.66 1280.44C2565.14 1280.74 2564.58 1280.89 2563.96 1280.89C2563.11 1280.89 2562.39 1280.64 2561.8 1280.13C2561.23 1279.62 2560.94 1278.95 2560.94 1278.14ZM2563.21 1277.94C2563.21 1278.26 2563.33 1278.54 2563.57 1278.78C2563.82 1279.02 2564.16 1279.14 2564.59 1279.14C2565.21 1279.14 2565.71 1278.89 2566.11 1278.39C2566.5 1277.88 2566.7 1277.33 2566.7 1276.73V1276.48H2566.3C2564.24 1276.48 2563.21 1276.97 2563.21 1277.94ZM2573.35 1280.67V1273.44H2570.32V1271.49H2578.66V1273.44H2575.61V1280.67H2573.35ZM2588.84 1280.67V1271.49H2591.13V1280.67H2588.84ZM2580.2 1280.67V1271.49H2582.49V1274.64H2584.13C2585.22 1274.64 2586.07 1274.91 2586.67 1275.44C2587.28 1275.95 2587.58 1276.7 2587.58 1277.69C2587.58 1278.61 2587.3 1279.34 2586.72 1279.88C2586.14 1280.41 2585.27 1280.67 2584.11 1280.67H2580.2ZM2582.49 1279.11H2583.75C2584.25 1279.11 2584.63 1278.98 2584.88 1278.71C2585.15 1278.45 2585.28 1278.1 2585.28 1277.67C2585.28 1277.22 2585.15 1276.87 2584.88 1276.61C2584.62 1276.33 2584.23 1276.19 2583.71 1276.19H2582.49V1279.11Z"
              fill="white"/>
        <g filter="url(#filter5_d_402_464)">
            <rect x="3056.47" y="1370.41" width="252.38" height="364.88" rx="25" fill="url(#paint4_linear_402_464)"/>
        </g>
        <path d="M3142.89 1546.85V1534.07H3145.21V1539.49H3151.06V1534.07H3153.37V1546.85H3151.06V1541.49H3145.21V1546.85H3142.89ZM3155.31 1544.32C3155.31 1543.67 3155.49 1543.12 3155.83 1542.66C3156.19 1542.2 3156.66 1541.87 3157.24 1541.67C3157.83 1541.45 3158.39 1541.3 3158.93 1541.22C3159.48 1541.14 3160.06 1541.09 3160.66 1541.09H3161.05V1540.97C3161.05 1539.89 3160.48 1539.35 3159.33 1539.35C3158.49 1539.35 3157.63 1539.64 3156.77 1540.23L3155.92 1538.59C3156.32 1538.28 3156.85 1538.02 3157.53 1537.8C3158.2 1537.57 3158.86 1537.46 3159.52 1537.46C3160.72 1537.46 3161.66 1537.78 3162.33 1538.43C3163 1539.07 3163.34 1539.96 3163.34 1541.11V1546.85H3161.22V1546.08L3161.27 1545.41H3161.23C3160.95 1545.91 3160.54 1546.31 3160.03 1546.62C3159.51 1546.92 3158.95 1547.07 3158.34 1547.07C3157.48 1547.07 3156.76 1546.82 3156.18 1546.31C3155.6 1545.8 3155.31 1545.13 3155.31 1544.32ZM3157.58 1544.12C3157.58 1544.44 3157.7 1544.72 3157.94 1544.96C3158.19 1545.2 3158.53 1545.32 3158.97 1545.32C3159.58 1545.32 3160.08 1545.07 3160.48 1544.57C3160.87 1544.06 3161.07 1543.51 3161.07 1542.91V1542.66H3160.68C3158.61 1542.66 3157.58 1543.15 3157.58 1544.12ZM3164.84 1545.72L3165.81 1544.26C3166.53 1544.96 3167.3 1545.31 3168.13 1545.31C3168.62 1545.31 3169.01 1545.2 3169.28 1544.98C3169.57 1544.75 3169.71 1544.45 3169.71 1544.06C3169.71 1543.31 3169.2 1542.93 3168.18 1542.93H3167.07V1541.35H3168C3168.95 1541.35 3169.43 1540.99 3169.43 1540.28C3169.43 1539.55 3168.97 1539.19 3168.06 1539.19C3167.34 1539.19 3166.6 1539.44 3165.84 1539.94L3165.11 1538.48C3166.03 1537.8 3167.16 1537.46 3168.49 1537.46C3169.43 1537.46 3170.19 1537.69 3170.79 1538.14C3171.41 1538.59 3171.71 1539.2 3171.71 1539.98C3171.71 1540.96 3171.29 1541.65 3170.45 1542.05V1542.08C3171.48 1542.47 3172 1543.17 3172 1544.19C3172 1545.1 3171.66 1545.81 3170.97 1546.31C3170.29 1546.82 3169.43 1547.07 3168.38 1547.07C3166.98 1547.07 3165.8 1546.62 3164.84 1545.72ZM3173.91 1546.85V1537.67H3178.17C3179.12 1537.67 3179.87 1537.88 3180.42 1538.3C3180.99 1538.71 3181.27 1539.29 3181.27 1540.05C3181.27 1540.48 3181.16 1540.88 3180.95 1541.26C3180.74 1541.62 3180.45 1541.89 3180.06 1542.07V1542.08C3180.59 1542.22 3180.99 1542.48 3181.27 1542.88C3181.55 1543.26 3181.68 1543.7 3181.68 1544.19C3181.68 1545.07 3181.37 1545.73 3180.73 1546.19C3180.11 1546.63 3179.28 1546.85 3178.26 1546.85H3173.91ZM3176.19 1541.45H3177.69C3178.11 1541.45 3178.43 1541.35 3178.64 1541.13C3178.86 1540.9 3178.97 1540.61 3178.97 1540.25C3178.97 1539.53 3178.53 1539.17 3177.65 1539.17H3176.19V1541.45ZM3176.19 1545.34H3177.87C3178.36 1545.34 3178.73 1545.23 3178.98 1545.02C3179.25 1544.79 3179.38 1544.49 3179.38 1544.12C3179.38 1543.73 3179.25 1543.43 3178.98 1543.22C3178.72 1542.99 3178.35 1542.88 3177.87 1542.88H3176.19V1545.34ZM3182.89 1544.32C3182.89 1543.67 3183.07 1543.12 3183.41 1542.66C3183.77 1542.2 3184.24 1541.87 3184.82 1541.67C3185.41 1541.45 3185.97 1541.3 3186.51 1541.22C3187.06 1541.14 3187.64 1541.09 3188.24 1541.09H3188.63V1540.97C3188.63 1539.89 3188.06 1539.35 3186.91 1539.35C3186.07 1539.35 3185.21 1539.64 3184.35 1540.23L3183.5 1538.59C3183.9 1538.28 3184.43 1538.02 3185.11 1537.8C3185.78 1537.57 3186.44 1537.46 3187.1 1537.46C3188.3 1537.46 3189.24 1537.78 3189.91 1538.43C3190.58 1539.07 3190.92 1539.96 3190.92 1541.11V1546.85H3188.8V1546.08L3188.85 1545.41H3188.81C3188.53 1545.91 3188.12 1546.31 3187.61 1546.62C3187.09 1546.92 3186.53 1547.07 3185.92 1547.07C3185.06 1547.07 3184.34 1546.82 3183.76 1546.31C3183.18 1545.8 3182.89 1545.13 3182.89 1544.32ZM3185.16 1544.12C3185.16 1544.44 3185.28 1544.72 3185.52 1544.96C3185.77 1545.2 3186.11 1545.32 3186.55 1545.32C3187.16 1545.32 3187.66 1545.07 3188.06 1544.57C3188.45 1544.06 3188.65 1543.51 3188.65 1542.91V1542.66H3188.26C3186.19 1542.66 3185.16 1543.15 3185.16 1544.12ZM3193.24 1546.85V1537.67H3195.53V1541.22H3199.45V1537.67H3201.74V1546.85H3199.45V1543.15H3195.53V1546.85H3193.24ZM3204.2 1546.85V1537.67H3206.37V1542.59C3206.37 1543.03 3206.36 1543.4 3206.32 1543.69H3206.36C3206.4 1543.58 3206.63 1543.21 3207.04 1542.59L3210.44 1537.67H3212.66V1546.85H3210.48V1541.96C3210.48 1541.69 3210.5 1541.33 3210.53 1540.86H3210.5C3210.46 1540.94 3210.23 1541.31 3209.81 1541.96L3206.41 1546.85H3204.2ZM3214.55 1542.26C3214.55 1540.85 3214.99 1539.7 3215.85 1538.81C3216.73 1537.91 3217.85 1537.46 3219.23 1537.46C3220.51 1537.46 3221.5 1537.87 3222.22 1538.7C3222.94 1539.52 3223.3 1540.55 3223.3 1541.81C3223.3 1542.02 3223.28 1542.31 3223.23 1542.7H3216.91C3216.98 1543.46 3217.28 1544.06 3217.79 1544.5C3218.31 1544.92 3218.93 1545.13 3219.67 1545.13C3220.58 1545.13 3221.45 1544.79 3222.29 1544.12L3223.19 1545.76C3222.74 1546.16 3222.17 1546.49 3221.5 1546.73C3220.84 1546.96 3220.18 1547.07 3219.5 1547.07C3218.03 1547.07 3216.83 1546.61 3215.92 1545.68C3215.01 1544.75 3214.55 1543.61 3214.55 1542.26ZM3216.97 1541.13H3221.02C3221 1540.53 3220.82 1540.06 3220.48 1539.71C3220.14 1539.36 3219.71 1539.19 3219.18 1539.19C3218.6 1539.19 3218.12 1539.37 3217.72 1539.73C3217.33 1540.07 3217.07 1540.54 3216.97 1541.13ZM3145.3 1570.85V1561.67H3147.59V1565.18H3148.7L3150.93 1561.67H3153.47L3150.56 1566.05V1566.08L3153.83 1570.85H3151.19L3148.77 1567.13H3147.59V1570.85H3145.3ZM3155.69 1569.72C3154.72 1568.81 3154.23 1567.66 3154.23 1566.26C3154.23 1564.87 3154.72 1563.73 3155.69 1562.83C3156.66 1561.91 3157.85 1561.46 3159.26 1561.46C3160.67 1561.46 3161.87 1561.91 3162.84 1562.83C3163.82 1563.73 3164.31 1564.87 3164.31 1566.26C3164.31 1567.66 3163.83 1568.81 3162.86 1569.72C3161.88 1570.62 3160.69 1571.07 3159.27 1571.07C3157.86 1571.07 3156.66 1570.62 3155.69 1569.72ZM3156.56 1566.26C3156.56 1567.1 3156.81 1567.79 3157.33 1568.33C3157.86 1568.86 3158.51 1569.13 3159.27 1569.13C3160.04 1569.13 3160.69 1568.86 3161.22 1568.33C3161.75 1567.79 3162.01 1567.1 3162.01 1566.26C3162.01 1565.44 3161.74 1564.75 3161.2 1564.21C3160.67 1563.67 3160.03 1563.4 3159.27 1563.4C3158.52 1563.4 3157.88 1563.67 3157.35 1564.21C3156.82 1564.75 3156.56 1565.44 3156.56 1566.26ZM3165.82 1570.85L3166.65 1561.67H3169.24L3171.19 1566.41L3171.64 1567.58H3171.67C3171.84 1567.15 3171.99 1566.76 3172.12 1566.41L3174.1 1561.67H3176.66L3177.49 1570.85H3175.29L3174.97 1565.89L3174.98 1564.32H3174.95C3174.78 1564.78 3174.6 1565.22 3174.41 1565.65L3172.61 1569.7H3170.72L3168.92 1565.67L3168.36 1564.32H3168.32L3168.34 1565.89L3168.02 1570.85H3165.82ZM3179.58 1570.85V1561.67H3181.86V1565.22H3185.79V1561.67H3188.07V1570.85H3185.79V1567.15H3181.86V1570.85H3179.58ZM3189.83 1568.32C3189.83 1567.67 3190 1567.12 3190.35 1566.66C3190.71 1566.2 3191.18 1565.87 3191.75 1565.67C3192.34 1565.45 3192.9 1565.3 3193.44 1565.22C3194 1565.14 3194.57 1565.09 3195.17 1565.09H3195.57V1564.97C3195.57 1563.89 3194.99 1563.35 3193.84 1563.35C3193 1563.35 3192.15 1563.64 3191.28 1564.23L3190.44 1562.59C3190.83 1562.28 3191.37 1562.02 3192.04 1561.8C3192.71 1561.57 3193.38 1561.46 3194.04 1561.46C3195.24 1561.46 3196.17 1561.78 3196.85 1562.43C3197.52 1563.07 3197.85 1563.96 3197.85 1565.11V1570.85H3195.73V1570.08L3195.78 1569.41H3195.75C3195.46 1569.91 3195.06 1570.31 3194.54 1570.62C3194.03 1570.92 3193.46 1571.07 3192.85 1571.07C3192 1571.07 3191.28 1570.82 3190.69 1570.31C3190.11 1569.8 3189.83 1569.13 3189.83 1568.32ZM3192.09 1568.12C3192.09 1568.44 3192.21 1568.72 3192.45 1568.96C3192.71 1569.2 3193.05 1569.32 3193.48 1569.32C3194.09 1569.32 3194.6 1569.07 3194.99 1568.57C3195.39 1568.06 3195.59 1567.51 3195.59 1566.91V1566.66H3195.19C3193.13 1566.66 3192.09 1567.15 3192.09 1568.12ZM3202.23 1570.85V1563.62H3199.21V1561.67H3207.54V1563.62H3204.5V1570.85H3202.23ZM3217.73 1570.85V1561.67H3220.02V1570.85H3217.73ZM3209.09 1570.85V1561.67H3211.38V1564.82H3213.02C3214.11 1564.82 3214.95 1565.09 3215.55 1565.62C3216.17 1566.13 3216.47 1566.88 3216.47 1567.87C3216.47 1568.79 3216.18 1569.52 3215.61 1570.06C3215.03 1570.59 3214.16 1570.85 3213 1570.85H3209.09ZM3211.38 1569.29H3212.64C3213.14 1569.29 3213.52 1569.16 3213.77 1568.89C3214.04 1568.63 3214.17 1568.28 3214.17 1567.85C3214.17 1567.4 3214.04 1567.05 3213.77 1566.79C3213.51 1566.51 3213.12 1566.37 3212.6 1566.37H3211.38V1569.29Z"
              fill="white"/>
        <g filter="url(#filter6_d_402_464)">
            <rect x="1666.28" y="813.612" width="277.856" height="243.5" rx="25" fill="url(#paint5_linear_402_464)"/>
        </g>
        <path d="M1765.51 929.362V916.582H1767.83V922H1773.68V916.582H1775.98V929.362H1773.68V923.998H1767.83V929.362H1765.51ZM1777.93 926.824C1777.93 926.176 1778.1 925.624 1778.45 925.168C1778.81 924.712 1779.28 924.382 1779.85 924.178C1780.44 923.962 1781.01 923.812 1781.55 923.728C1782.1 923.644 1782.67 923.602 1783.27 923.602H1783.67V923.476C1783.67 922.396 1783.09 921.856 1781.94 921.856C1781.1 921.856 1780.25 922.15 1779.39 922.738L1778.54 921.1C1778.94 920.788 1779.47 920.524 1780.14 920.308C1780.81 920.08 1781.48 919.966 1782.14 919.966C1783.34 919.966 1784.28 920.29 1784.95 920.938C1785.62 921.574 1785.96 922.468 1785.96 923.62V929.362H1783.83V928.588L1783.89 927.922H1783.85C1783.56 928.414 1783.16 928.816 1782.64 929.128C1782.13 929.428 1781.56 929.578 1780.95 929.578C1780.1 929.578 1779.38 929.326 1778.79 928.822C1778.22 928.306 1777.93 927.64 1777.93 926.824ZM1780.2 926.626C1780.2 926.95 1780.32 927.232 1780.56 927.472C1780.81 927.712 1781.15 927.832 1781.58 927.832C1782.19 927.832 1782.7 927.58 1783.09 927.076C1783.49 926.572 1783.69 926.02 1783.69 925.42V925.168H1783.29C1781.23 925.168 1780.2 925.654 1780.2 926.626ZM1787.45 928.228L1788.42 926.77C1789.14 927.466 1789.92 927.814 1790.75 927.814C1791.24 927.814 1791.62 927.706 1791.9 927.49C1792.19 927.262 1792.33 926.956 1792.33 926.572C1792.33 925.816 1791.82 925.438 1790.8 925.438H1789.68V923.854H1790.62C1791.57 923.854 1792.04 923.5 1792.04 922.792C1792.04 922.06 1791.59 921.694 1790.67 921.694C1789.95 921.694 1789.22 921.946 1788.46 922.45L1787.72 920.992C1788.65 920.308 1789.77 919.966 1791.11 919.966C1792.04 919.966 1792.81 920.194 1793.41 920.65C1794.02 921.094 1794.33 921.706 1794.33 922.486C1794.33 923.47 1793.91 924.16 1793.07 924.556V924.592C1794.1 924.976 1794.62 925.678 1794.62 926.698C1794.62 927.61 1794.27 928.318 1793.59 928.822C1792.91 929.326 1792.04 929.578 1791 929.578C1789.59 929.578 1788.41 929.128 1787.45 928.228ZM1796.52 929.362V920.182H1800.79C1801.74 920.182 1802.49 920.392 1803.04 920.812C1803.6 921.22 1803.89 921.802 1803.89 922.558C1803.89 922.99 1803.78 923.392 1803.56 923.764C1803.36 924.124 1803.06 924.394 1802.68 924.574V924.592C1803.21 924.724 1803.61 924.988 1803.89 925.384C1804.16 925.768 1804.3 926.206 1804.3 926.698C1804.3 927.574 1803.98 928.24 1803.35 928.696C1802.72 929.14 1801.9 929.362 1800.88 929.362H1796.52ZM1798.81 923.962H1800.3C1800.72 923.962 1801.04 923.854 1801.26 923.638C1801.47 923.41 1801.58 923.116 1801.58 922.756C1801.58 922.036 1801.14 921.676 1800.27 921.676H1798.81V923.962ZM1798.81 927.85H1800.48C1800.98 927.85 1801.35 927.742 1801.6 927.526C1801.86 927.298 1802 926.998 1802 926.626C1802 926.242 1801.86 925.942 1801.6 925.726C1801.34 925.498 1800.96 925.384 1800.48 925.384H1798.81V927.85ZM1805.51 926.824C1805.51 926.176 1805.68 925.624 1806.03 925.168C1806.39 924.712 1806.86 924.382 1807.43 924.178C1808.02 923.962 1808.59 923.812 1809.13 923.728C1809.68 923.644 1810.25 923.602 1810.85 923.602H1811.25V923.476C1811.25 922.396 1810.67 921.856 1809.52 921.856C1808.68 921.856 1807.83 922.15 1806.97 922.738L1806.12 921.1C1806.52 920.788 1807.05 920.524 1807.72 920.308C1808.39 920.08 1809.06 919.966 1809.72 919.966C1810.92 919.966 1811.86 920.29 1812.53 920.938C1813.2 921.574 1813.54 922.468 1813.54 923.62V929.362H1811.41V928.588L1811.47 927.922H1811.43C1811.14 928.414 1810.74 928.816 1810.22 929.128C1809.71 929.428 1809.14 929.578 1808.53 929.578C1807.68 929.578 1806.96 929.326 1806.37 928.822C1805.8 928.306 1805.51 927.64 1805.51 926.824ZM1807.78 926.626C1807.78 926.95 1807.9 927.232 1808.14 927.472C1808.39 927.712 1808.73 927.832 1809.16 927.832C1809.77 927.832 1810.28 927.58 1810.67 927.076C1811.07 926.572 1811.27 926.02 1811.27 925.42V925.168H1810.87C1808.81 925.168 1807.78 925.654 1807.78 926.626ZM1815.86 929.362V920.182H1818.15V923.728H1822.07V920.182H1824.36V929.362H1822.07V925.654H1818.15V929.362H1815.86ZM1826.81 929.362V920.182H1828.99V925.096C1828.99 925.54 1828.97 925.906 1828.93 926.194H1828.97C1829.02 926.086 1829.25 925.72 1829.65 925.096L1833.06 920.182H1835.27V929.362H1833.09V924.466C1833.09 924.202 1833.11 923.836 1833.15 923.368H1833.11C1833.07 923.452 1832.85 923.818 1832.43 924.466L1829.02 929.362H1826.81ZM1837.17 924.772C1837.17 923.356 1837.6 922.204 1838.46 921.316C1839.34 920.416 1840.47 919.966 1841.85 919.966C1843.12 919.966 1844.12 920.38 1844.84 921.208C1845.56 922.024 1845.92 923.062 1845.92 924.322C1845.92 924.526 1845.89 924.82 1845.84 925.204H1839.53C1839.6 925.972 1839.89 926.572 1840.41 927.004C1840.92 927.424 1841.55 927.634 1842.28 927.634C1843.19 927.634 1844.07 927.298 1844.91 926.626L1845.81 928.264C1845.35 928.672 1844.79 928.996 1844.12 929.236C1843.46 929.464 1842.79 929.578 1842.12 929.578C1840.64 929.578 1839.45 929.116 1838.54 928.192C1837.62 927.256 1837.17 926.116 1837.17 924.772ZM1839.58 923.638H1843.63C1843.62 923.038 1843.44 922.564 1843.09 922.216C1842.75 921.868 1842.32 921.694 1841.79 921.694C1841.22 921.694 1840.73 921.874 1840.34 922.234C1839.94 922.582 1839.69 923.05 1839.58 923.638ZM1767.92 953.362V944.182H1770.2V947.692H1771.32L1773.55 944.182H1776.09L1773.17 948.556V948.592L1776.45 953.362H1773.8L1771.39 949.636H1770.2V953.362H1767.92ZM1778.31 952.228C1777.34 951.316 1776.85 950.164 1776.85 948.772C1776.85 947.38 1777.34 946.234 1778.31 945.334C1779.28 944.422 1780.47 943.966 1781.87 943.966C1783.29 943.966 1784.48 944.422 1785.45 945.334C1786.44 946.234 1786.93 947.38 1786.93 948.772C1786.93 950.164 1786.44 951.316 1785.47 952.228C1784.5 953.128 1783.31 953.578 1781.89 953.578C1780.47 953.578 1779.28 953.128 1778.31 952.228ZM1779.17 948.772C1779.17 949.612 1779.43 950.302 1779.95 950.842C1780.47 951.37 1781.12 951.634 1781.89 951.634C1782.66 951.634 1783.31 951.37 1783.83 950.842C1784.36 950.302 1784.63 949.612 1784.63 948.772C1784.63 947.944 1784.36 947.26 1783.82 946.72C1783.29 946.18 1782.65 945.91 1781.89 945.91C1781.13 945.91 1780.49 946.18 1779.96 946.72C1779.44 947.26 1779.17 947.944 1779.17 948.772ZM1788.44 953.362L1789.27 944.182H1791.86L1793.8 948.916L1794.25 950.086H1794.29C1794.46 949.654 1794.61 949.264 1794.74 948.916L1796.72 944.182H1799.27L1800.1 953.362H1797.91L1797.58 948.394L1797.6 946.828H1797.56C1797.4 947.284 1797.22 947.728 1797.02 948.16L1795.22 952.21H1793.33L1791.53 948.178L1790.98 946.828H1790.94L1790.96 948.394L1790.63 953.362H1788.44ZM1802.19 953.362V944.182H1804.48V947.728H1808.4V944.182H1810.69V953.362H1808.4V949.654H1804.48V953.362H1802.19ZM1812.44 950.824C1812.44 950.176 1812.62 949.624 1812.96 949.168C1813.32 948.712 1813.79 948.382 1814.37 948.178C1814.96 947.962 1815.52 947.812 1816.06 947.728C1816.61 947.644 1817.19 947.602 1817.79 947.602H1818.18V947.476C1818.18 946.396 1817.61 945.856 1816.46 945.856C1815.62 945.856 1814.76 946.15 1813.9 946.738L1813.05 945.1C1813.45 944.788 1813.98 944.524 1814.66 944.308C1815.33 944.08 1815.99 943.966 1816.65 943.966C1817.85 943.966 1818.79 944.29 1819.46 944.938C1820.13 945.574 1820.47 946.468 1820.47 947.62V953.362H1818.35V952.588L1818.4 951.922H1818.36C1818.08 952.414 1817.67 952.816 1817.16 953.128C1816.64 953.428 1816.08 953.578 1815.47 953.578C1814.61 953.578 1813.89 953.326 1813.31 952.822C1812.73 952.306 1812.44 951.64 1812.44 950.824ZM1814.71 950.626C1814.71 950.95 1814.83 951.232 1815.07 951.472C1815.32 951.712 1815.66 951.832 1816.1 951.832C1816.71 951.832 1817.21 951.58 1817.61 951.076C1818 950.572 1818.2 950.02 1818.2 949.42V949.168H1817.81C1815.74 949.168 1814.71 949.654 1814.71 950.626ZM1824.85 953.362V946.126H1821.82V944.182H1830.16V946.126H1827.12V953.362H1824.85ZM1840.35 953.362V944.182H1842.63V953.362H1840.35ZM1831.71 953.362V944.182H1833.99V947.332H1835.63C1836.72 947.332 1837.57 947.596 1838.17 948.124C1838.78 948.64 1839.09 949.39 1839.09 950.374C1839.09 951.298 1838.8 952.03 1838.22 952.57C1837.65 953.098 1836.78 953.362 1835.61 953.362H1831.71ZM1833.99 951.796H1835.25C1835.76 951.796 1836.13 951.664 1836.39 951.4C1836.65 951.136 1836.78 950.788 1836.78 950.356C1836.78 949.912 1836.65 949.558 1836.39 949.294C1836.12 949.018 1835.73 948.88 1835.22 948.88H1833.99V951.796Z"
              fill="white"/>
        <g filter="url(#filter7_d_402_464)">
            <rect x="1697.59" y="1125.11" width="168.701" height="161.618" rx="25" fill="url(#paint6_linear_402_464)"/>
        </g>
        <path d="M1742.17 1199.92V1187.14H1744.49V1192.56H1750.34V1187.14H1752.65V1199.92H1750.34V1194.56H1744.49V1199.92H1742.17ZM1754.59 1197.38C1754.59 1196.74 1754.77 1196.18 1755.11 1195.73C1755.47 1195.27 1755.94 1194.94 1756.52 1194.74C1757.11 1194.52 1757.67 1194.37 1758.21 1194.29C1758.76 1194.2 1759.34 1194.16 1759.94 1194.16H1760.33V1194.04C1760.33 1192.96 1759.76 1192.42 1758.61 1192.42C1757.77 1192.42 1756.91 1192.71 1756.05 1193.3L1755.2 1191.66C1755.6 1191.35 1756.13 1191.08 1756.81 1190.87C1757.48 1190.64 1758.14 1190.53 1758.8 1190.53C1760 1190.53 1760.94 1190.85 1761.61 1191.5C1762.28 1192.13 1762.62 1193.03 1762.62 1194.18V1199.92H1760.5V1199.15L1760.55 1198.48H1760.51C1760.23 1198.97 1759.82 1199.38 1759.31 1199.69C1758.79 1199.99 1758.23 1200.14 1757.62 1200.14C1756.76 1200.14 1756.04 1199.89 1755.46 1199.38C1754.88 1198.87 1754.59 1198.2 1754.59 1197.38ZM1756.86 1197.19C1756.86 1197.51 1756.98 1197.79 1757.22 1198.03C1757.47 1198.27 1757.81 1198.39 1758.25 1198.39C1758.86 1198.39 1759.36 1198.14 1759.76 1197.64C1760.15 1197.13 1760.35 1196.58 1760.35 1195.98V1195.73H1759.96C1757.89 1195.73 1756.86 1196.21 1756.86 1197.19ZM1764.12 1198.79L1765.09 1197.33C1765.81 1198.03 1766.58 1198.37 1767.41 1198.37C1767.9 1198.37 1768.29 1198.27 1768.56 1198.05C1768.85 1197.82 1768.99 1197.52 1768.99 1197.13C1768.99 1196.38 1768.48 1196 1767.46 1196H1766.35V1194.41H1767.28C1768.23 1194.41 1768.71 1194.06 1768.71 1193.35C1768.71 1192.62 1768.25 1192.25 1767.34 1192.25C1766.62 1192.25 1765.88 1192.51 1765.12 1193.01L1764.39 1191.55C1765.31 1190.87 1766.44 1190.53 1767.77 1190.53C1768.71 1190.53 1769.47 1190.75 1770.07 1191.21C1770.69 1191.65 1770.99 1192.27 1770.99 1193.05C1770.99 1194.03 1770.57 1194.72 1769.73 1195.12V1195.15C1770.76 1195.54 1771.28 1196.24 1771.28 1197.26C1771.28 1198.17 1770.94 1198.88 1770.25 1199.38C1769.57 1199.89 1768.71 1200.14 1767.66 1200.14C1766.26 1200.14 1765.08 1199.69 1764.12 1198.79ZM1773.19 1199.92V1190.74H1777.45C1778.4 1190.74 1779.15 1190.95 1779.7 1191.37C1780.27 1191.78 1780.55 1192.36 1780.55 1193.12C1780.55 1193.55 1780.44 1193.95 1780.23 1194.32C1780.02 1194.68 1779.73 1194.95 1779.34 1195.13V1195.15C1779.87 1195.28 1780.27 1195.55 1780.55 1195.94C1780.83 1196.33 1780.96 1196.77 1780.96 1197.26C1780.96 1198.13 1780.65 1198.8 1780.01 1199.26C1779.39 1199.7 1778.56 1199.92 1777.54 1199.92H1773.19ZM1775.47 1194.52H1776.97C1777.39 1194.52 1777.71 1194.41 1777.92 1194.2C1778.14 1193.97 1778.25 1193.68 1778.25 1193.32C1778.25 1192.6 1777.81 1192.24 1776.93 1192.24H1775.47V1194.52ZM1775.47 1198.41H1777.15C1777.64 1198.41 1778.01 1198.3 1778.26 1198.09C1778.53 1197.86 1778.66 1197.56 1778.66 1197.19C1778.66 1196.8 1778.53 1196.5 1778.26 1196.29C1778 1196.06 1777.63 1195.94 1777.15 1195.94H1775.47V1198.41ZM1782.17 1197.38C1782.17 1196.74 1782.35 1196.18 1782.69 1195.73C1783.05 1195.27 1783.52 1194.94 1784.1 1194.74C1784.69 1194.52 1785.25 1194.37 1785.79 1194.29C1786.34 1194.2 1786.92 1194.16 1787.52 1194.16H1787.91V1194.04C1787.91 1192.96 1787.34 1192.42 1786.19 1192.42C1785.35 1192.42 1784.49 1192.71 1783.63 1193.3L1782.78 1191.66C1783.18 1191.35 1783.71 1191.08 1784.39 1190.87C1785.06 1190.64 1785.72 1190.53 1786.38 1190.53C1787.58 1190.53 1788.52 1190.85 1789.19 1191.5C1789.86 1192.13 1790.2 1193.03 1790.2 1194.18V1199.92H1788.08V1199.15L1788.13 1198.48H1788.09C1787.81 1198.97 1787.4 1199.38 1786.89 1199.69C1786.37 1199.99 1785.81 1200.14 1785.2 1200.14C1784.34 1200.14 1783.62 1199.89 1783.04 1199.38C1782.46 1198.87 1782.17 1198.2 1782.17 1197.38ZM1784.44 1197.19C1784.44 1197.51 1784.56 1197.79 1784.8 1198.03C1785.05 1198.27 1785.39 1198.39 1785.83 1198.39C1786.44 1198.39 1786.94 1198.14 1787.34 1197.64C1787.73 1197.13 1787.93 1196.58 1787.93 1195.98V1195.73H1787.54C1785.47 1195.73 1784.44 1196.21 1784.44 1197.19ZM1792.52 1199.92V1190.74H1794.81V1194.29H1798.73V1190.74H1801.02V1199.92H1798.73V1196.21H1794.81V1199.92H1792.52ZM1803.47 1199.92V1190.74H1805.65V1195.66C1805.65 1196.1 1805.63 1196.47 1805.6 1196.75H1805.63C1805.68 1196.65 1805.91 1196.28 1806.32 1195.66L1809.72 1190.74H1811.93V1199.92H1809.76V1195.03C1809.76 1194.76 1809.77 1194.4 1809.81 1193.93H1809.77C1809.74 1194.01 1809.51 1194.38 1809.09 1195.03L1805.69 1199.92H1803.47ZM1813.83 1195.33C1813.83 1193.92 1814.26 1192.76 1815.13 1191.88C1816 1190.98 1817.13 1190.53 1818.51 1190.53C1819.78 1190.53 1820.78 1190.94 1821.5 1191.77C1822.22 1192.58 1822.58 1193.62 1822.58 1194.88C1822.58 1195.09 1822.56 1195.38 1822.51 1195.76H1816.19C1816.26 1196.53 1816.56 1197.13 1817.07 1197.56C1817.59 1197.98 1818.21 1198.19 1818.94 1198.19C1819.86 1198.19 1820.73 1197.86 1821.57 1197.19L1822.47 1198.82C1822.02 1199.23 1821.45 1199.56 1820.78 1199.8C1820.12 1200.02 1819.45 1200.14 1818.78 1200.14C1817.31 1200.14 1816.11 1199.68 1815.2 1198.75C1814.29 1197.82 1813.83 1196.68 1813.83 1195.33ZM1816.24 1194.2H1820.29C1820.28 1193.6 1820.1 1193.12 1819.75 1192.78C1819.42 1192.43 1818.99 1192.25 1818.46 1192.25C1817.88 1192.25 1817.4 1192.43 1817 1192.79C1816.6 1193.14 1816.35 1193.61 1816.24 1194.2ZM1744.58 1223.92V1214.74H1746.87V1218.25H1747.98L1750.21 1214.74H1752.75L1749.84 1219.12V1219.15L1753.11 1223.92H1750.47L1748.05 1220.2H1746.87V1223.92H1744.58ZM1754.97 1222.79C1754 1221.88 1753.51 1220.72 1753.51 1219.33C1753.51 1217.94 1754 1216.79 1754.97 1215.89C1755.94 1214.98 1757.13 1214.53 1758.54 1214.53C1759.95 1214.53 1761.15 1214.98 1762.12 1215.89C1763.1 1216.79 1763.59 1217.94 1763.59 1219.33C1763.59 1220.72 1763.11 1221.88 1762.14 1222.79C1761.16 1223.69 1759.97 1224.14 1758.55 1224.14C1757.14 1224.14 1755.94 1223.69 1754.97 1222.79ZM1755.84 1219.33C1755.84 1220.17 1756.09 1220.86 1756.61 1221.4C1757.14 1221.93 1757.79 1222.19 1758.55 1222.19C1759.32 1222.19 1759.97 1221.93 1760.5 1221.4C1761.03 1220.86 1761.29 1220.17 1761.29 1219.33C1761.29 1218.5 1761.02 1217.82 1760.48 1217.28C1759.95 1216.74 1759.31 1216.47 1758.55 1216.47C1757.8 1216.47 1757.16 1216.74 1756.63 1217.28C1756.1 1217.82 1755.84 1218.5 1755.84 1219.33ZM1765.1 1223.92L1765.93 1214.74H1768.52L1770.47 1219.48L1770.92 1220.65H1770.95C1771.12 1220.21 1771.27 1219.82 1771.4 1219.48L1773.38 1214.74H1775.94L1776.77 1223.92H1774.57L1774.25 1218.95L1774.26 1217.39H1774.23C1774.06 1217.84 1773.88 1218.29 1773.69 1218.72L1771.89 1222.77H1770L1768.2 1218.74L1767.64 1217.39H1767.6L1767.62 1218.95L1767.3 1223.92H1765.1ZM1778.86 1223.92V1214.74H1781.14V1218.29H1785.07V1214.74H1787.35V1223.92H1785.07V1220.21H1781.14V1223.92H1778.86ZM1789.11 1221.38C1789.11 1220.74 1789.28 1220.18 1789.63 1219.73C1789.99 1219.27 1790.46 1218.94 1791.03 1218.74C1791.62 1218.52 1792.18 1218.37 1792.72 1218.29C1793.28 1218.2 1793.85 1218.16 1794.45 1218.16H1794.85V1218.04C1794.85 1216.96 1794.27 1216.42 1793.12 1216.42C1792.28 1216.42 1791.43 1216.71 1790.56 1217.3L1789.72 1215.66C1790.11 1215.35 1790.65 1215.08 1791.32 1214.87C1791.99 1214.64 1792.66 1214.53 1793.32 1214.53C1794.52 1214.53 1795.45 1214.85 1796.13 1215.5C1796.8 1216.13 1797.13 1217.03 1797.13 1218.18V1223.92H1795.01V1223.15L1795.06 1222.48H1795.03C1794.74 1222.97 1794.34 1223.38 1793.82 1223.69C1793.31 1223.99 1792.74 1224.14 1792.13 1224.14C1791.28 1224.14 1790.56 1223.89 1789.97 1223.38C1789.39 1222.87 1789.11 1222.2 1789.11 1221.38ZM1791.37 1221.19C1791.37 1221.51 1791.49 1221.79 1791.73 1222.03C1791.99 1222.27 1792.33 1222.39 1792.76 1222.39C1793.37 1222.39 1793.88 1222.14 1794.27 1221.64C1794.67 1221.13 1794.87 1220.58 1794.87 1219.98V1219.73H1794.47C1792.41 1219.73 1791.37 1220.21 1791.37 1221.19ZM1801.51 1223.92V1216.69H1798.49V1214.74H1806.82V1216.69H1803.78V1223.92H1801.51ZM1817.01 1223.92V1214.74H1819.3V1223.92H1817.01ZM1808.37 1223.92V1214.74H1810.66V1217.89H1812.29C1813.39 1217.89 1814.23 1218.16 1814.83 1218.68C1815.44 1219.2 1815.75 1219.95 1815.75 1220.93C1815.75 1221.86 1815.46 1222.59 1814.89 1223.13C1814.31 1223.66 1813.44 1223.92 1812.28 1223.92H1808.37ZM1810.66 1222.36H1811.92C1812.42 1222.36 1812.8 1222.22 1813.05 1221.96C1813.31 1221.7 1813.45 1221.35 1813.45 1220.92C1813.45 1220.47 1813.31 1220.12 1813.05 1219.85C1812.79 1219.58 1812.4 1219.44 1811.88 1219.44H1810.66V1222.36Z"
              fill="white"/>
    </g>
    <defs>
        <filter id="filter0_d_402_464" x="-4" y="0" width="4027" height="3494" filterUnits="userSpaceOnUse"
                color-interpolation-filters="sRGB">
            <feFlood flood-opacity="0" result="BackgroundImageFix"/>
            <feColorMatrix in="SourceAlpha" type="matrix" values="0 0 0 0 0 0 0 0 0 0 0 0 0 0 0 0 0 0 127 0"
                           result="hardAlpha"/>
            <feOffset dy="4"/>
            <feGaussianBlur stdDeviation="2"/>
            <feComposite in2="hardAlpha" operator="out"/>
            <feColorMatrix type="matrix" values="0 0 0 0 0 0 0 0 0 0 0 0 0 0 0 0 0 0 0.25 0"/>
            <feBlend mode="normal" in2="BackgroundImageFix" result="effect1_dropShadow_402_464"/>
            <feBlend mode="normal" in="SourceGraphic" in2="effect1_dropShadow_402_464" result="shape"/>
        </filter>
        <filter id="filter1_d_402_464" x="348.086" y="341.359" width="413.451" height="1008.18"
                filterUnits="userSpaceOnUse" color-interpolation-filters="sRGB">
            <feFlood flood-opacity="0" result="BackgroundImageFix"/>
            <feColorMatrix in="SourceAlpha" type="matrix" values="0 0 0 0 0 0 0 0 0 0 0 0 0 0 0 0 0 0 127 0"
                           result="hardAlpha"/>
            <feOffset/>
            <feGaussianBlur stdDeviation="25"/>
            <feComposite in2="hardAlpha" operator="out"/>
            <feColorMatrix type="matrix" values="0 0 0 0 0 0 0 0 0 0 0 0 0 0 0 0 0 0 0.25 0"/>
            <feBlend mode="normal" in2="BackgroundImageFix" result="effect1_dropShadow_402_464"/>
            <feBlend mode="normal" in="SourceGraphic" in2="effect1_dropShadow_402_464" result="shape"/>
        </filter>
        <filter id="filter2_d_402_464" x="346.275" y="1851.11" width="348.164" height="993.943"
                filterUnits="userSpaceOnUse" color-interpolation-filters="sRGB">
            <feFlood flood-opacity="0" result="BackgroundImageFix"/>
            <feColorMatrix in="SourceAlpha" type="matrix" values="0 0 0 0 0 0 0 0 0 0 0 0 0 0 0 0 0 0 127 0"
                           result="hardAlpha"/>
            <feOffset dy="4"/>
            <feGaussianBlur stdDeviation="25"/>
            <feComposite in2="hardAlpha" operator="out"/>
            <feColorMatrix type="matrix" values="0 0 0 0 0 0 0 0 0 0 0 0 0 0 0 0 0 0 0.25 0"/>
            <feBlend mode="normal" in2="BackgroundImageFix" result="effect1_dropShadow_402_464"/>
            <feBlend mode="normal" in="SourceGraphic" in2="effect1_dropShadow_402_464" result="shape"/>
        </filter>
        <filter id="filter3_d_402_464" x="720.275" y="235.112" width="512.844" height="306.093"
                filterUnits="userSpaceOnUse" color-interpolation-filters="sRGB">
            <feFlood flood-opacity="0" result="BackgroundImageFix"/>
            <feColorMatrix in="SourceAlpha" type="matrix" values="0 0 0 0 0 0 0 0 0 0 0 0 0 0 0 0 0 0 127 0"
                           result="hardAlpha"/>
            <feOffset/>
            <feGaussianBlur stdDeviation="25"/>
            <feComposite in2="hardAlpha" operator="out"/>
            <feColorMatrix type="matrix" values="0 0 0 0 0 0 0 0 0 0 0 0 0 0 0 0 0 0 0.25 0"/>
            <feBlend mode="normal" in2="BackgroundImageFix" result="effect1_dropShadow_402_464"/>
            <feBlend mode="normal" in="SourceGraphic" in2="effect1_dropShadow_402_464" result="shape"/>
        </filter>
        <filter id="filter4_d_402_464" x="2066.27" y="1075.11" width="977" height="375.124" filterUnits="userSpaceOnUse"
                color-interpolation-filters="sRGB">
            <feFlood flood-opacity="0" result="BackgroundImageFix"/>
            <feColorMatrix in="SourceAlpha" type="matrix" values="0 0 0 0 0 0 0 0 0 0 0 0 0 0 0 0 0 0 127 0"
                           result="hardAlpha"/>
            <feOffset/>
            <feGaussianBlur stdDeviation="25"/>
            <feComposite in2="hardAlpha" operator="out"/>
            <feColorMatrix type="matrix" values="0 0 0 0 0 0 0 0 0 0 0 0 0 0 0 0 0 0 0.25 0"/>
            <feBlend mode="normal" in2="BackgroundImageFix" result="effect1_dropShadow_402_464"/>
            <feBlend mode="normal" in="SourceGraphic" in2="effect1_dropShadow_402_464" result="shape"/>
        </filter>
        <filter id="filter5_d_402_464" x="3006.47" y="1320.41" width="352.379" height="464.88"
                filterUnits="userSpaceOnUse" color-interpolation-filters="sRGB">
            <feFlood flood-opacity="0" result="BackgroundImageFix"/>
            <feColorMatrix in="SourceAlpha" type="matrix" values="0 0 0 0 0 0 0 0 0 0 0 0 0 0 0 0 0 0 127 0"
                           result="hardAlpha"/>
            <feOffset/>
            <feGaussianBlur stdDeviation="25"/>
            <feComposite in2="hardAlpha" operator="out"/>
            <feColorMatrix type="matrix" values="0 0 0 0 0 0 0 0 0 0 0 0 0 0 0 0 0 0 0.25 0"/>
            <feBlend mode="normal" in2="BackgroundImageFix" result="effect1_dropShadow_402_464"/>
            <feBlend mode="normal" in="SourceGraphic" in2="effect1_dropShadow_402_464" result="shape"/>
        </filter>
        <filter id="filter6_d_402_464" x="1616.28" y="763.612" width="377.855" height="343.5"
                filterUnits="userSpaceOnUse" color-interpolation-filters="sRGB">
            <feFlood flood-opacity="0" result="BackgroundImageFix"/>
            <feColorMatrix in="SourceAlpha" type="matrix" values="0 0 0 0 0 0 0 0 0 0 0 0 0 0 0 0 0 0 127 0"
                           result="hardAlpha"/>
            <feOffset/>
            <feGaussianBlur stdDeviation="25"/>
            <feComposite in2="hardAlpha" operator="out"/>
            <feColorMatrix type="matrix" values="0 0 0 0 0 0 0 0 0 0 0 0 0 0 0 0 0 0 0.25 0"/>
            <feBlend mode="normal" in2="BackgroundImageFix" result="effect1_dropShadow_402_464"/>
            <feBlend mode="normal" in="SourceGraphic" in2="effect1_dropShadow_402_464" result="shape"/>
        </filter>
        <filter id="filter7_d_402_464" x="1647.59" y="1075.11" width="268.701" height="261.618"
                filterUnits="userSpaceOnUse" color-interpolation-filters="sRGB">
            <feFlood flood-opacity="0" result="BackgroundImageFix"/>
            <feColorMatrix in="SourceAlpha" type="matrix" values="0 0 0 0 0 0 0 0 0 0 0 0 0 0 0 0 0 0 127 0"
                           result="hardAlpha"/>
            <feOffset/>
            <feGaussianBlur stdDeviation="25"/>
            <feComposite in2="hardAlpha" operator="out"/>
            <feColorMatrix type="matrix" values="0 0 0 0 0 0 0 0 0 0 0 0 0 0 0 0 0 0 0.25 0"/>
            <feBlend mode="normal" in2="BackgroundImageFix" result="effect1_dropShadow_402_464"/>
            <feBlend mode="normal" in="SourceGraphic" in2="effect1_dropShadow_402_464" result="shape"/>
        </filter>
        <linearGradient id="paint0_linear_402_464" x1="-521.94" y1="-610.795" x2="554.812" y2="1299.54"
                        gradientUnits="userSpaceOnUse">
            <stop stop-color="white"/>
            <stop offset="1" stop-color="#ED713E"/>
        </linearGradient>
        <linearGradient id="paint1_linear_402_464" x1="-332.121" y1="910.667" x2="832.377" y2="2572.4"
                        gradientUnits="userSpaceOnUse">
            <stop stop-color="white"/>
            <stop offset="1" stop-color="#ED3E48"/>
        </linearGradient>
        <linearGradient id="paint2_linear_402_464" x1="-441.482" y1="57.6939" x2="-386.526" y2="623.593"
                        gradientUnits="userSpaceOnUse">
            <stop stop-color="white"/>
            <stop offset="1" stop-color="#ED533E"/>
        </linearGradient>
        <linearGradient id="paint3_linear_402_464" x1="-457.848" y1="821.52" x2="-411.481" y2="1581.26"
                        gradientUnits="userSpaceOnUse">
            <stop stop-color="white"/>
            <stop offset="1" stop-color="#C03EED"/>
        </linearGradient>
        <linearGradient id="paint4_linear_402_464" x1="2315.7" y1="967.778" x2="2579.3" y2="1904.99"
                        gradientUnits="userSpaceOnUse">
            <stop stop-color="white"/>
            <stop offset="1" stop-color="#D20B0B"/>
        </linearGradient>
        <linearGradient id="paint5_linear_402_464" x1="850.728" y1="544.916" x2="962.542" y2="1200.77"
                        gradientUnits="userSpaceOnUse">
            <stop stop-color="white"/>
            <stop offset="1" stop-color="#D20B5F"/>
        </linearGradient>
        <linearGradient id="paint6_linear_402_464" x1="1202.43" y1="946.771" x2="1283.11" y2="1379.7"
                        gradientUnits="userSpaceOnUse">
            <stop stop-color="white"/>
            <stop offset="1" stop-color="#D20BB2"/>
        </linearGradient>
    </defs>
</svg>
